<?xml version="1.0" standalone="no"?>
<!DOCTYPE svg PUBLIC "-//W3C//DTD SVG 20010904//EN"
 "http://www.w3.org/TR/2001/REC-SVG-20010904/DTD/svg10.dtd">
<svg version="1.0" xmlns="http://www.w3.org/2000/svg"
 width="1536.000000pt" height="1024.000000pt" viewBox="0 0 1536.000000 1024.000000"
 preserveAspectRatio="xMidYMid meet">

<g transform="translate(0.000000,1024.000000) scale(0.100000,-0.100000)"
fill="#000000" stroke="none">
<path d="M6190 9874 c-64 -14 -110 -38 -118 -63 -6 -17 44 -10 103 13 86 33
180 19 235 -36 38 -38 42 -40 85 -34 30 5 61 20 93 44 l47 37 115 -3 c63 -1
130 -3 149 -5 51 -3 50 20 -1 43 -34 16 -65 20 -151 20 -120 0 -154 -10 -202
-60 -16 -17 -36 -30 -45 -30 -9 0 -43 20 -76 45 -54 40 -64 44 -114 44 -30 0
-84 -7 -120 -15z"/>
<path d="M2615 9851 c-86 -22 -131 -64 -175 -164 -29 -66 -22 -93 27 -99 21
-3 55 -13 75 -21 41 -17 45 -27 87 -222 11 -54 30 -117 42 -140 12 -22 44 -85
72 -140 l51 -100 6 -145 5 -145 75 0 74 0 9 45 c4 25 16 103 27 174 10 71 23
133 27 137 5 5 52 11 105 15 l97 7 65 -69 c86 -90 117 -152 125 -252 l6 -77
51 -3 51 -3 17 41 c20 49 50 232 66 394 15 156 19 166 67 166 45 0 68 13 60
32 -8 23 -123 119 -232 195 -185 129 -220 142 -273 104 -15 -10 -61 -37 -103
-60 -58 -31 -87 -41 -122 -41 -89 0 -92 3 -148 154 -61 163 -143 240 -234 217z
m97 -88 c47 -43 101 -148 118 -229 13 -60 40 -84 122 -104 58 -15 81 -8 199
60 48 28 96 50 107 50 50 0 263 -133 336 -208 27 -29 28 -30 8 -41 -28 -15
-39 -59 -46 -181 -3 -58 -12 -142 -20 -187 -36 -201 -76 -289 -76 -167 0 71
-32 134 -131 257 l-70 87 -67 0 c-90 0 -210 -28 -224 -53 -5 -10 -16 -65 -23
-120 -14 -110 -50 -220 -68 -214 -7 2 -15 37 -19 83 -12 134 -27 191 -85 312
-79 167 -91 202 -122 340 -17 71 -36 131 -46 142 -10 11 -44 28 -74 36 -31 9
-57 18 -59 19 -7 7 38 82 65 107 62 59 117 62 175 11z"/>
<path d="M11449 9813 c-40 -20 -102 -86 -142 -150 -19 -30 -43 -50 -84 -70
-73 -36 -98 -68 -89 -118 4 -20 16 -45 27 -56 22 -22 103 -24 553 -12 l257 6
-7 31 c-9 42 -80 136 -103 136 -28 0 -67 35 -127 117 -45 60 -66 79 -108 99
-73 33 -132 39 -177 17z m113 -43 c52 -15 91 -51 149 -136 50 -75 72 -94 107
-94 22 0 66 -60 54 -72 -10 -10 -665 -14 -681 -4 -24 15 -5 42 54 71 43 21 72
46 102 85 23 30 42 61 43 69 0 15 37 47 84 73 37 20 41 21 88 8z"/>
<path d="M13616 9808 c-34 -52 -41 -168 -15 -238 5 -14 26 -36 46 -50 l37 -25
-67 -7 c-142 -14 -179 -47 -113 -104 48 -42 151 -91 206 -100 25 -4 63 -16 85
-28 l40 -20 -50 -6 c-65 -7 -111 -40 -126 -89 -15 -49 0 -77 49 -98 105 -45
240 -60 402 -45 92 9 115 15 189 51 102 50 116 61 149 126 20 40 26 68 29 140
6 150 3 146 128 154 100 7 103 16 38 102 -64 84 -116 111 -226 117 -106 5
-157 -9 -196 -53 -23 -27 -31 -45 -31 -75 0 -55 -15 -90 -39 -90 -26 0 -84 51
-122 107 -45 65 -76 77 -183 70 -54 -4 -97 -2 -109 4 -24 13 -47 68 -47 113 0
59 -46 86 -74 44z m39 -133 c10 -69 33 -80 167 -78 102 1 111 -1 138 -24 16
-13 40 -42 52 -64 30 -54 103 -102 143 -95 34 7 63 37 71 75 18 85 29 106 69
128 76 43 189 25 263 -42 46 -42 46 -42 22 -49 -144 -39 -176 -77 -151 -177
11 -40 10 -57 -3 -101 -24 -85 -88 -134 -234 -181 -82 -26 -274 -30 -362 -8
-61 15 -130 47 -130 60 0 4 11 20 25 35 23 24 29 26 117 26 111 0 139 11 85
33 -19 9 -43 27 -53 42 -22 33 -93 69 -178 91 -37 9 -87 30 -113 47 -45 30
-46 32 -22 38 13 4 47 7 75 8 69 1 89 18 89 75 0 37 -3 46 -17 46 -9 0 -29 10
-44 23 -22 19 -28 34 -32 80 -5 69 13 78 23 12z"/>
<path d="M677 9773 c-2 -5 -7 -35 -11 -69 -7 -68 15 -147 36 -126 17 17 23
169 8 187 -14 16 -26 19 -33 8z"/>
<path d="M4685 9704 c-16 -8 -57 -39 -90 -70 -36 -33 -66 -53 -75 -50 -84 28
-98 30 -143 12 -62 -24 -137 -104 -137 -147 0 -43 36 -95 80 -116 39 -19 71
-20 597 -15 285 2 323 4 338 19 23 23 14 72 -25 133 -38 60 -101 90 -187 90
l-58 0 -59 65 c-83 90 -165 118 -241 79z m145 -56 c37 -19 50 -34 75 -85 33
-69 44 -77 81 -63 69 26 170 -7 211 -69 13 -19 23 -37 23 -41 0 -12 -358 -22
-633 -18 l-249 3 -24 28 c-47 55 -18 116 68 142 69 20 72 20 112 -15 19 -17
40 -28 49 -25 8 4 39 34 70 69 86 97 136 114 217 74z"/>
<path d="M417 9703 c-16 -16 -4 -41 44 -91 66 -69 126 -112 156 -112 12 0 23
2 23 5 0 8 -201 205 -209 205 -4 0 -11 -3 -14 -7z"/>
<path d="M838 9616 c-13 -19 -35 -49 -49 -67 -31 -40 -46 -79 -29 -79 24 0 51
22 77 63 14 23 37 52 50 64 31 29 30 53 -2 53 -17 0 -32 -11 -47 -34z"/>
<path d="M8230 9604 c-41 -14 -85 -35 -97 -46 -23 -22 -59 -125 -48 -137 8 -7
27 -7 467 4 l346 8 -3 38 c-7 70 -41 116 -106 143 -28 12 -48 13 -95 5 -125
-20 -198 -21 -276 -5 -98 20 -99 20 -188 -10z m195 -49 c78 -19 137 -19 208 0
93 24 134 20 168 -16 16 -17 29 -37 29 -43 0 -10 -74 -14 -307 -19 -170 -4
-326 -10 -347 -13 -39 -7 -39 -7 -32 22 10 40 27 55 83 70 64 17 125 17 198
-1z"/>
<path d="M6176 9492 c-29 -32 -91 -100 -137 -152 -46 -52 -172 -185 -280 -295
-181 -185 -262 -285 -244 -303 9 -9 1825 -13 2040 -4 116 5 170 11 170 18 0 7
-100 118 -223 247 -290 307 -321 324 -441 247 -71 -46 -135 -80 -151 -80 -7 0
-36 25 -65 55 -33 34 -61 55 -75 55 -14 0 -48 -25 -90 -66 l-69 -66 -79 79
c-85 85 -179 193 -228 265 -47 67 -64 67 -128 0z m111 -67 c76 -107 213 -252
264 -279 44 -24 48 -29 37 -45 -7 -10 -76 -86 -153 -169 l-140 -151 -358 -1
-359 0 34 42 c18 24 110 119 203 213 171 170 291 300 366 395 22 27 46 50 53
50 8 0 32 -25 53 -55z m908 -205 c46 -20 61 -34 309 -300 l117 -125 -203 -5
c-112 -3 -208 -3 -215 0 -14 6 -243 305 -243 318 0 5 29 26 65 47 35 21 74 49
86 62 27 28 26 28 84 3z m-358 -61 c26 -34 64 -80 84 -103 20 -23 75 -91 122
-152 l85 -112 -301 -7 c-166 -4 -338 -5 -382 -3 l-80 3 115 125 c64 69 137
152 162 185 64 83 106 120 140 124 4 1 29 -27 55 -60z"/>
<path d="M362 9488 c-35 -35 12 -54 103 -43 63 8 68 23 14 42 -45 16 -102 16
-117 1z"/>
<path d="M9654 9470 c-56 -22 -35 -62 22 -41 47 17 77 -3 110 -72 43 -94 43
-94 -99 -89 -168 6 -259 -22 -349 -106 -49 -45 -2 -61 50 -17 43 36 108 63
172 71 l55 6 -60 -39 c-75 -50 -173 -153 -259 -274 -95 -134 -124 -171 -145
-185 -10 -7 -59 -17 -109 -22 -61 -6 -96 -15 -107 -26 -15 -15 48 -16 849 -16
848 0 866 0 876 20 8 15 6 23 -9 37 -33 32 -48 74 -100 292 -54 223 -79 286
-136 350 -42 46 -147 105 -174 96 -38 -12 -140 -160 -170 -247 -10 -29 -24
-52 -30 -50 -6 1 -50 23 -96 48 -79 43 -85 48 -85 77 0 40 30 106 59 131 26
24 27 43 2 51 -33 10 -71 -12 -77 -45 -8 -36 -17 -38 -38 -5 -28 42 -109 71
-152 55z m687 -115 c99 -77 129 -146 189 -440 26 -128 34 -188 26 -190 -13 -4
-546 -12 -546 -8 0 1 17 11 38 22 36 19 69 57 58 69 -3 3 -46 -14 -95 -37 -82
-39 -97 -43 -212 -52 -68 -5 -227 -8 -353 -7 l-229 3 36 45 c20 25 43 60 52
78 27 61 163 220 245 287 40 33 72 48 151 70 l100 29 82 -39 c45 -22 105 -56
134 -77 l51 -37 14 22 c8 12 22 48 31 80 26 94 116 227 154 227 8 0 41 -20 74
-45z"/>
<path d="M1573 9453 c-50 -17 -107 -78 -165 -175 -64 -108 -72 -104 202 -100
277 4 290 5 290 36 0 80 -68 204 -129 236 -48 24 -135 26 -198 3z m184 -60
c27 -19 92 -147 81 -158 -3 -3 -96 -4 -208 -3 l-202 3 57 73 c77 98 103 114
182 110 44 -3 71 -10 90 -25z"/>
<path d="M855 9440 c-12 -20 23 -40 69 -40 48 0 86 9 86 20 0 22 -143 40 -155
20z"/>
<path d="M657 9424 c8 -4 9 -13 2 -34 -11 -31 -7 -182 7 -245 6 -24 15 -40 23
-40 23 0 33 54 21 118 -6 32 -11 86 -10 120 2 89 3 87 -27 86 -16 0 -23 -3
-16 -5z"/>
<path d="M780 9380 c0 -31 33 -89 78 -140 38 -43 41 -44 58 -28 17 17 16 20
-16 65 -41 59 -79 102 -102 114 -15 8 -18 6 -18 -11z"/>
<path d="M554 9365 c-40 -24 -111 -111 -100 -122 3 -3 14 -2 25 3 22 11 141
116 141 125 0 18 -31 15 -66 -6z"/>
<path d="M12399 8951 c-57 -8 -118 -58 -205 -169 -54 -69 -64 -77 -90 -74 -71
9 -173 4 -199 -9 -67 -33 -91 -115 -57 -193 l21 -46 585 2 c321 2 587 6 591
10 4 3 11 25 16 47 7 34 5 49 -15 94 -25 57 -56 85 -131 118 -36 16 -57 19
-99 14 -57 -7 -55 -9 -108 57 -127 154 -159 170 -309 149z m115 -60 c54 -21
150 -103 178 -152 l28 -49 85 6 84 7 56 -54 c42 -41 57 -63 62 -91 l6 -38
-547 -1 c-300 -1 -551 -2 -558 -3 -17 -1 -22 79 -7 115 15 37 35 48 92 50 36
2 53 -4 92 -32 l47 -34 20 25 c10 14 36 45 56 70 20 24 37 51 39 59 2 19 15
30 97 85 71 48 115 57 170 37z"/>
<path d="M4487 8734 c-3 -3 -3 -13 0 -21 3 -8 -4 -27 -16 -43 -25 -34 -27 -63
-6 -80 17 -14 20 -46 5 -55 -13 -8 -66 -113 -87 -169 -8 -23 -20 -103 -28
-179 -7 -76 -15 -140 -18 -143 -3 -3 -33 -8 -66 -11 l-61 -6 0 -181 c0 -99 5
-214 10 -253 12 -92 0 -160 -32 -184 l-23 -18 -5 -308 -5 -308 -51 -6 c-58 -7
-77 -16 -69 -30 9 -13 2202 -12 2210 2 4 5 -35 54 -87 107 -118 122 -244 280
-356 446 -48 71 -109 153 -136 183 -55 61 -213 182 -237 183 -27 0 -219 -153
-309 -247 -47 -48 -131 -143 -188 -211 l-102 -122 0 150 c0 137 -2 152 -20
170 -11 11 -24 20 -30 20 -6 0 -10 106 -10 298 0 218 -3 301 -12 310 -7 7 -38
12 -70 12 l-58 0 0 149 c0 159 -6 184 -62 247 -26 29 -59 124 -52 149 4 11 13
28 22 37 13 16 13 20 -2 42 -9 14 -16 37 -16 51 0 23 -18 34 -33 19z m31 -319
c43 -48 54 -92 59 -234 4 -97 2 -125 -8 -132 -8 -5 -49 -9 -91 -9 l-78 0 4
123 c3 86 10 138 24 177 26 73 44 110 53 110 4 0 21 -16 37 -35z m202 -705 c0
-317 5 -300 -84 -300 l-46 0 0 202 c0 200 0 201 -26 235 -21 27 -32 33 -64 33
-78 0 -109 -56 -110 -200 0 -41 -3 -119 -7 -173 l-6 -98 -53 3 -52 3 -6 288
-6 287 230 0 230 0 0 -280z m-189 75 c18 -41 20 -63 17 -208 l-3 -162 -57 -3
-58 -3 6 183 c6 158 10 187 26 211 27 39 46 34 69 -18z m953 -214 c115 -87
168 -149 341 -396 112 -160 162 -223 252 -316 l64 -66 -92 -6 c-51 -4 -346 -7
-656 -7 l-563 0 0 100 c0 74 4 110 16 133 18 35 134 182 220 279 99 111 331
314 363 318 2 0 27 -17 55 -39z m-714 -501 l0 -290 -79 0 c-65 0 -80 3 -85 17
-4 10 -6 79 -5 154 2 121 0 139 -18 165 -11 16 -28 41 -37 57 -14 23 -23 27
-59 27 -48 0 -77 -22 -96 -73 -6 -16 -11 -99 -11 -188 l0 -159 -85 0 -85 0 0
290 0 290 280 0 280 0 0 -290z m-243 41 c21 -32 23 -43 21 -184 l-1 -149 -50
5 c-27 4 -51 8 -52 9 -2 2 -6 71 -10 153 -7 145 -6 151 15 178 28 35 48 32 77
-12z"/>
<path d="M5367 7222 c-23 -25 -23 -89 1 -96 68 -21 116 -26 124 -14 4 7 8 16
8 19 0 10 -99 109 -108 109 -5 0 -16 -8 -25 -18z"/>
<path d="M8167 8514 c-4 -4 -7 -82 -7 -173 0 -91 -4 -180 -9 -196 -4 -17 -10
-397 -12 -845 -4 -810 -4 -815 16 -815 19 0 20 9 26 175 4 96 7 244 8 329 l1
153 38 -7 c132 -25 357 -32 477 -14 33 5 105 11 160 15 l100 7 110 -45 c126
-52 180 -67 250 -70 l50 -3 12 50 c10 37 12 143 10 398 l-2 348 -140 60 c-212
92 -260 103 -440 99 -365 -6 -377 -6 -427 17 -54 25 -87 58 -119 122 -18 36
-21 55 -16 107 4 54 2 66 -13 77 -14 10 -20 34 -26 112 -7 78 -12 100 -24 103
-9 1 -19 0 -23 -4z m123 -517 c76 -65 119 -72 430 -73 313 0 316 -1 511 -87
l119 -52 0 -182 c0 -101 -4 -183 -8 -183 -4 0 -66 20 -137 44 -248 84 -364 94
-619 50 -160 -27 -239 -28 -341 -1 l-50 13 -3 225 c-2 123 0 258 4 299 l6 75
24 -46 c13 -26 42 -62 64 -82z m775 -542 c106 -32 252 -98 271 -123 14 -18 19
-176 8 -219 -10 -35 -65 -30 -211 22 -71 26 -156 48 -191 52 -37 3 -142 -2
-248 -12 -161 -16 -202 -17 -315 -6 -72 6 -144 14 -160 18 l-29 6 0 142 0 143
43 -15 c76 -27 227 -27 362 1 166 34 339 31 470 -9z"/>
<path d="M14121 8385 c-32 -31 -67 -55 -79 -55 -11 0 -51 16 -87 35 -79 41
-78 41 -175 -47 -36 -33 -77 -67 -92 -76 -33 -19 -36 -32 -8 -32 30 0 71 23
126 71 74 64 82 66 152 30 88 -44 121 -42 175 14 25 25 51 45 59 45 8 0 25
-11 38 -25 32 -34 143 -105 164 -105 9 0 34 11 54 25 52 36 79 32 142 -20 30
-25 65 -48 76 -51 30 -8 69 -1 68 11 0 5 -50 43 -110 83 -86 58 -112 71 -124
63 -50 -37 -78 -51 -100 -51 -36 0 -122 53 -162 100 -19 22 -40 40 -47 40 -7
0 -38 -25 -70 -55z"/>
<path d="M744 8406 c-97 -24 -164 -76 -208 -163 -11 -21 -12 -34 -5 -38 6 -4
94 -11 197 -15 103 -5 196 -11 207 -15 51 -17 165 -68 165 -74 0 -3 -35 -6
-78 -7 -86 -1 -181 -23 -261 -61 -117 -55 -257 -227 -249 -306 5 -50 41 -48
152 7 50 25 121 52 156 60 74 18 170 21 170 6 0 -13 95 -13 140 0 19 5 38 6
43 1 4 -4 -17 -66 -47 -137 -66 -157 -117 -313 -151 -461 -22 -97 -25 -136
-25 -292 0 -98 3 -186 6 -195 5 -14 28 -16 145 -16 110 0 141 3 145 14 3 8 -2
38 -10 67 -10 32 -16 91 -16 150 0 91 4 139 30 394 5 50 30 163 54 250 24 88
47 172 50 188 7 31 41 38 48 9 3 -12 30 -26 77 -42 76 -26 125 -68 163 -138
18 -34 48 -35 48 -2 0 61 -71 153 -145 186 -44 20 -47 23 -22 23 43 1 203 -47
287 -85 62 -29 89 -50 156 -121 91 -97 106 -100 125 -31 27 103 -15 229 -110
325 -99 101 -170 139 -294 159 -50 8 -93 17 -96 19 -9 10 170 85 272 115 59
17 144 35 189 41 129 17 162 36 113 63 -11 6 -38 23 -61 38 -64 42 -156 85
-195 92 -48 9 -253 -36 -317 -68 -26 -13 -85 -52 -130 -85 -45 -34 -82 -57
-82 -52 0 16 -131 110 -195 140 -132 64 -316 87 -441 57z m272 -61 c162 -41
293 -119 324 -195 7 -16 18 -30 24 -30 6 0 52 34 101 75 103 85 199 137 300
160 86 20 125 15 224 -32 l76 -36 -35 -9 c-367 -96 -458 -134 -520 -220 -17
-22 -30 -44 -30 -48 0 -4 53 -9 118 -12 111 -4 121 -6 196 -42 51 -25 97 -56
127 -87 78 -80 138 -204 121 -249 -6 -17 -16 -10 -72 47 -78 78 -180 131 -328
169 -121 32 -206 30 -253 -5 -17 -13 -43 -26 -57 -30 -23 -6 -28 -19 -63 -154
-52 -196 -61 -217 -96 -217 -75 -1 -102 -34 -35 -45 62 -11 62 -11 62 -67 0
-83 -16 -98 -101 -98 -62 0 -70 2 -65 18 43 152 100 315 151 431 81 183 81
184 -41 192 -119 9 -327 -5 -388 -26 -28 -10 -82 -36 -120 -60 -39 -24 -73
-42 -74 -40 -2 2 11 31 29 65 88 165 272 256 477 234 107 -11 121 -9 115 15
-3 11 4 27 17 39 l22 21 -32 19 c-65 40 -238 102 -311 112 -41 5 -120 11 -176
12 l-102 3 22 23 c86 93 209 113 393 67z m160 -1227 c-17 -169 -18 -234 -3
-296 8 -34 12 -64 8 -66 -3 -2 -46 -5 -94 -7 l-89 -4 1 152 c1 84 6 178 11
210 6 32 10 59 10 60 0 1 33 4 73 6 39 1 76 4 81 5 5 1 6 -26 2 -60z"/>
<path d="M10765 8120 c2 -8 9 -82 16 -165 12 -160 23 -195 55 -164 14 15 14
29 0 160 -22 190 -21 187 -51 185 -17 -1 -23 -6 -20 -16z"/>
<path d="M11318 8091 c-69 -77 -185 -272 -173 -291 21 -34 66 23 174 218 65
117 64 146 -1 73z"/>
<path d="M6497 8115 c-112 -23 -154 -43 -203 -99 -61 -70 -59 -81 24 -99 99
-22 222 -9 222 23 0 5 -47 10 -104 12 -57 1 -107 6 -111 10 -12 12 14 45 48
62 86 40 296 69 420 56 105 -10 207 -60 273 -133 71 -79 80 -95 65 -118 -14
-24 -7 -39 20 -39 50 0 77 42 44 70 -8 6 -25 31 -39 54 -39 67 -143 158 -212
186 -52 21 -77 24 -219 26 -107 2 -182 -2 -228 -11z"/>
<path d="M6620 7858 c-107 -65 -198 -130 -203 -142 -3 -8 0 -22 7 -31 11 -15
34 -17 217 -15 407 6 422 5 479 -11 54 -16 55 -17 106 -109 60 -106 84 -134
137 -162 39 -19 103 -22 101 -3 -1 5 -28 25 -60 45 -51 31 -66 48 -114 127
-68 115 -85 131 -146 147 -30 8 -48 18 -46 26 2 9 -6 11 -28 7 -113 -23 -571
-40 -580 -22 -3 6 17 22 44 37 71 38 156 101 156 116 0 18 -31 14 -70 -10z"/>
<path d="M3009 7823 c-22 -59 -75 -156 -97 -180 -22 -24 -29 -25 -86 -21 -60
5 -96 -3 -96 -21 0 -5 32 -21 71 -35 118 -44 168 -89 194 -173 8 -27 43 -31
52 -5 23 67 60 136 82 151 14 11 45 24 69 30 30 9 42 17 42 31 0 15 -10 20
-55 25 -82 11 -94 25 -110 130 -8 50 -14 91 -15 93 0 1 -9 2 -20 2 -13 0 -24
-10 -31 -27z m44 -180 c10 -18 26 -37 37 -43 19 -10 19 -12 -13 -60 -17 -27
-39 -50 -48 -50 -8 0 -28 14 -45 31 -16 17 -39 35 -52 40 -22 8 -22 9 -4 27
10 10 36 47 58 82 38 62 39 62 45 34 3 -16 13 -43 22 -61z"/>
<path d="M10327 7826 c-7 -18 28 -65 83 -111 25 -21 59 -53 76 -73 25 -29 34
-34 57 -28 15 3 27 10 27 15 0 12 -185 182 -215 198 -19 10 -24 10 -28 -1z"/>
<path d="M11680 7759 c-40 -22 -90 -53 -110 -68 -19 -16 -54 -38 -77 -50 -43
-21 -52 -34 -33 -46 15 -9 125 44 224 110 140 92 138 131 -4 54z"/>
<path d="M10886 7715 c-143 -41 -273 -143 -329 -259 -32 -66 -60 -195 -55
-258 3 -39 6 -43 32 -46 l29 -4 -7 51 c-8 63 7 126 53 220 51 104 107 164 195
205 111 53 169 62 255 41 73 -18 165 -66 214 -113 38 -36 92 -134 112 -204 9
-32 15 -85 14 -123 -1 -36 3 -71 8 -76 18 -18 25 7 30 100 5 75 2 95 -21 154
-48 128 -129 220 -248 282 -64 34 -82 39 -153 42 -47 1 -100 -3 -129 -12z"/>
<path d="M12806 7688 c-8 -13 -24 -46 -35 -75 -11 -28 -52 -115 -91 -192 -38
-77 -70 -149 -70 -159 0 -23 24 -73 62 -129 15 -23 28 -46 28 -51 0 -5 9 -21
20 -35 11 -14 27 -43 34 -65 16 -45 77 -132 90 -128 11 3 115 199 172 324 l42
94 -50 96 c-28 54 -64 121 -81 151 -16 29 -40 83 -52 120 -24 72 -45 86 -69
49z m128 -293 l67 -130 -33 -73 c-18 -40 -54 -117 -79 -170 l-46 -97 -28 45
c-16 25 -44 77 -63 115 -19 39 -48 89 -63 112 -16 23 -29 51 -29 63 0 11 30
78 67 148 37 70 76 144 86 166 l20 38 17 -43 c9 -24 47 -102 84 -174z"/>
<path d="M13835 7531 c-50 -13 -92 -39 -119 -73 -24 -31 -24 -33 -7 -36 11 -2
37 8 58 22 110 72 227 45 324 -77 37 -47 38 -51 24 -71 -32 -43 -75 -143 -81
-189 l-7 -47 224 0 c123 0 230 4 238 9 24 16 5 36 -106 114 -136 95 -175 127
-170 140 9 28 99 76 167 88 91 16 136 3 195 -56 58 -58 86 -114 96 -199 14
-110 40 -119 47 -16 6 75 -14 133 -72 215 -58 81 -113 110 -206 110 -88 0
-149 -19 -205 -66 -26 -21 -55 -39 -64 -39 -10 0 -44 30 -76 66 -80 91 -172
128 -260 105z m425 -316 c36 -25 76 -56 89 -69 21 -23 22 -26 7 -32 -9 -4 -35
-4 -57 0 -23 4 -79 1 -126 -5 -46 -6 -86 -9 -88 -7 -6 6 34 119 51 145 19 30
38 25 124 -32z"/>
<path d="M10126 7360 c-38 -7 -60 -26 -49 -43 6 -10 322 -1 349 10 19 7 18 29
-2 37 -22 8 -250 5 -298 -4z"/>
<path d="M11550 7353 c0 -17 9 -22 55 -28 102 -12 270 -22 308 -17 43 5 51 13
34 35 -10 13 -46 17 -204 23 -190 7 -193 7 -193 -13z"/>
<path d="M10700 7139 c-52 -5 -158 -21 -235 -37 -114 -23 -141 -31 -143 -46
-3 -16 1 -17 35 -12 280 46 755 59 1101 30 188 -15 247 -14 211 6 -19 11 -277
45 -444 60 -139 11 -388 11 -525 -1z"/>
<path d="M2908 6624 c-36 -19 -91 -92 -108 -143 -8 -26 -19 -41 -30 -41 -9 0
-44 24 -77 53 -34 28 -91 67 -127 86 -59 30 -72 33 -131 29 -45 -3 -73 -10
-92 -24 -34 -25 -41 -68 -17 -95 18 -21 18 -23 -13 -130 -4 -14 11 -17 107
-22 104 -5 140 -15 140 -39 0 -5 -18 -27 -40 -50 -22 -23 -45 -58 -51 -77 -6
-20 -24 -65 -39 -101 -70 -164 -50 -179 117 -88 64 35 140 84 169 111 l52 48
8 -68 c4 -38 3 -158 -2 -268 -9 -204 -8 -732 1 -772 6 -24 29 -31 40 -13 3 6
8 263 10 571 3 309 7 564 10 568 3 3 16 -1 29 -9 13 -8 51 -33 86 -55 58 -37
93 -67 171 -151 38 -40 63 -47 91 -24 33 26 32 145 -1 213 -26 53 -83 101
-133 112 -24 6 -28 9 -16 16 21 11 143 14 249 4 73 -6 90 -5 113 10 14 10 26
22 26 29 -1 22 -117 152 -165 185 -45 30 -55 33 -100 28 -27 -3 -59 -9 -69
-13 -17 -6 -18 -4 -14 21 8 40 -8 78 -41 98 -36 21 -116 22 -153 1z m122 -52
c19 -15 21 -24 15 -52 -9 -39 -74 -113 -157 -177 -32 -24 -58 -51 -58 -59 0
-28 30 -26 72 5 23 17 49 31 57 31 32 0 79 38 86 69 9 40 24 51 81 57 73 9
129 -10 185 -63 27 -25 49 -49 49 -53 0 -4 -58 -5 -129 -2 -120 4 -131 3 -169
-18 -26 -15 -51 -21 -71 -18 -29 4 -31 3 -31 -28 0 -28 5 -34 49 -53 27 -11
53 -21 56 -21 20 0 70 -49 86 -84 20 -44 25 -106 9 -106 -5 0 -23 20 -40 45
-35 51 -66 75 -96 75 -12 0 -49 20 -82 45 -33 25 -66 45 -74 45 -8 0 -25 -14
-37 -31 -20 -27 -28 -31 -57 -26 -33 6 -68 -12 -271 -141 l-33 -21 0 25 c0 47
49 145 115 230 l67 85 -44 39 c-49 43 -107 64 -167 58 -36 -3 -41 -1 -41 18 0
35 -21 84 -36 84 -8 0 -14 4 -14 9 0 25 86 28 151 6 63 -22 163 -96 167 -123
5 -31 40 -52 88 -52 44 0 66 17 79 60 21 68 107 160 149 160 13 0 34 -8 46
-18z"/>
<path d="M11208 6478 c-73 -37 -102 -61 -243 -203 -89 -88 -192 -194 -230
-236 -39 -41 -83 -85 -99 -96 -21 -14 -27 -25 -23 -37 6 -16 56 -17 766 -14
418 2 763 6 767 10 15 15 -23 75 -96 152 -41 45 -101 113 -132 151 -109 136
-233 228 -380 285 -64 25 -92 30 -162 30 -79 0 -89 -2 -168 -42z m320 -42
c141 -49 274 -152 357 -276 25 -38 67 -88 92 -110 26 -22 54 -53 64 -69 l17
-28 -106 -7 c-144 -8 -1192 -6 -1216 3 -15 6 16 41 185 210 204 203 244 237
335 287 44 23 56 25 124 21 41 -3 108 -17 148 -31z"/>
<path d="M7025 6493 c-79 -29 -141 -69 -187 -124 -24 -28 -60 -59 -81 -70 -43
-23 -92 -86 -109 -140 -8 -30 -8 -49 4 -91 l15 -53 119 -8 c65 -4 259 -6 430
-5 339 3 344 4 344 60 0 33 -24 95 -47 120 -11 12 -30 18 -58 18 l-42 0 -43
83 c-55 108 -101 162 -161 192 -67 34 -122 40 -184 18z m161 -72 c48 -22 96
-79 149 -176 48 -89 62 -105 94 -105 14 0 31 -4 38 -8 15 -9 36 -63 27 -71 -3
-3 -171 -6 -372 -6 -412 0 -412 0 -412 63 0 74 48 131 111 132 22 0 28 6 33
32 9 43 82 111 148 136 66 26 131 27 184 3z"/>
<path d="M13780 6428 c-36 -13 -79 -33 -95 -46 -47 -35 -151 -161 -191 -230
-36 -60 -38 -62 -58 -47 -79 59 -148 98 -194 111 -79 23 -225 20 -293 -6 -77
-29 -119 -57 -119 -79 0 -28 112 -111 149 -111 6 0 39 -13 73 -28 35 -16 77
-35 93 -42 l30 -12 -51 -17 c-64 -22 -94 -43 -175 -127 -77 -81 -108 -141
-119 -227 -11 -91 -1 -151 26 -155 17 -2 26 7 44 42 24 51 119 143 157 152 17
5 33 0 51 -13 l25 -19 51 52 c57 58 121 84 208 84 48 0 87 -23 88 -52 1 -7 5
-47 10 -88 10 -84 -7 -271 -41 -445 -10 -55 -19 -114 -19 -131 0 -40 -37 -218
-56 -269 -8 -22 -23 -80 -33 -130 -11 -49 -23 -98 -26 -107 -7 -17 7 -18 195
-18 189 0 202 1 195 18 -13 31 -17 155 -8 267 9 108 7 159 -17 585 -6 118 -10
228 -8 244 3 29 3 29 43 -24 82 -110 293 -264 338 -247 14 5 17 21 17 85 0 94
-22 167 -74 242 -20 29 -36 56 -36 60 0 5 -24 22 -53 39 -30 17 -71 44 -92 61
l-38 30 34 14 c122 50 263 20 394 -84 61 -48 155 -100 183 -100 82 0 30 162
-105 325 -87 106 -252 174 -388 162 -33 -3 -71 -9 -85 -13 -34 -10 70 62 140
96 30 15 87 37 126 48 39 12 78 30 88 41 18 19 17 21 -29 53 -107 76 -240 96
-355 56z m185 -39 c22 -6 60 -23 85 -37 l45 -26 -55 -8 c-57 -9 -172 -58 -251
-109 -43 -27 -139 -136 -139 -157 0 -5 9 -17 20 -27 19 -17 21 -16 67 13 64
41 128 56 217 50 135 -9 242 -76 341 -214 42 -59 82 -140 73 -149 -5 -5 -107
64 -190 129 -46 35 -73 48 -133 61 -87 20 -127 16 -260 -21 -96 -27 -140 -52
-150 -85 -9 -28 17 -45 89 -58 74 -13 153 -64 195 -124 32 -47 101 -205 101
-232 0 -14 -3 -14 -31 1 -17 9 -69 45 -114 80 -65 51 -94 83 -140 154 -54 83
-61 90 -91 90 -18 0 -35 -4 -38 -9 -3 -4 2 -122 10 -261 9 -139 12 -256 7
-260 -4 -4 -29 -10 -55 -13 l-48 -5 1 47 c2 84 11 105 44 111 24 4 30 10 30
30 0 21 -4 25 -25 23 l-25 -3 3 158 c2 90 -1 168 -6 183 -10 24 -16 26 -94 32
-135 9 -206 -3 -276 -46 -33 -20 -71 -37 -85 -37 -37 0 -109 -45 -161 -100
-26 -28 -48 -50 -50 -50 -2 0 1 24 6 53 14 78 54 142 137 218 100 93 137 105
303 101 72 -2 129 1 132 6 3 6 -2 20 -12 31 -12 16 -35 24 -82 31 -36 5 -105
23 -155 40 -49 17 -117 37 -150 46 -33 8 -64 21 -70 28 -5 7 -25 20 -42 30
-18 9 -33 18 -33 21 0 2 21 14 48 25 41 19 61 21 162 18 103 -3 121 -7 170
-32 30 -16 81 -53 114 -84 l58 -56 27 33 c15 18 34 54 44 79 17 48 154 217
202 248 60 39 156 53 230 33z m-329 -1285 c4 -15 7 -52 8 -83 l1 -56 -55 3
c-75 5 -90 21 -90 92 0 31 3 60 7 63 3 4 32 7 64 7 55 0 59 -2 65 -26z m2
-183 c9 -5 12 -28 10 -77 l-3 -69 -83 2 c-46 1 -89 6 -96 12 -10 8 -11 25 -4
68 5 31 11 60 14 65 7 10 145 10 162 -1z m-12 -206 c11 -27 -7 -164 -23 -180
-11 -11 -39 -15 -108 -15 -52 0 -96 3 -98 8 -6 8 35 171 47 190 12 19 175 16
182 -3z"/>
<path d="M9082 6413 c2 -10 24 -28 51 -41 26 -13 50 -29 53 -37 3 -8 -2 -40
-11 -71 -12 -40 -13 -60 -6 -67 14 -14 14 -120 0 -168 -15 -50 -33 -41 -59 28
-39 106 -58 133 -92 133 -15 0 -14 -6 7 -58 13 -32 33 -96 45 -143 32 -128 50
-177 66 -183 23 -9 34 2 34 32 0 15 9 58 18 97 18 70 18 70 68 89 27 10 69 19
94 20 38 1 45 4 45 21 0 16 -6 20 -35 19 -19 -1 -55 -7 -79 -13 -24 -7 -45
-10 -47 -8 -3 2 -7 48 -11 101 -6 92 -5 98 15 112 26 18 28 37 6 54 -8 8 -21
28 -29 46 -14 34 -19 36 -98 49 -34 5 -38 4 -35 -12z"/>
<path d="M1340 6117 c-140 -41 -232 -134 -261 -265 l-10 -49 -67 67 c-79 79
-148 110 -243 110 -68 0 -129 -21 -129 -45 0 -15 10 -16 83 -10 69 6 90 4 137
-14 70 -26 120 -68 170 -141 22 -32 47 -66 56 -75 23 -22 28 -11 43 87 15 109
35 151 97 207 140 128 338 120 468 -19 26 -28 46 -58 44 -66 -2 -9 -21 -23
-43 -32 -22 -8 -53 -24 -68 -35 -17 -11 -38 -17 -53 -14 -21 4 -28 -2 -45 -36
-17 -32 -18 -41 -7 -48 25 -16 44 -9 103 41 54 46 75 55 145 62 56 6 32 95
-49 177 -41 42 -72 64 -116 81 -73 27 -191 35 -255 17z"/>
<path d="M5809 6125 c-4 -5 -10 -25 -14 -42 -3 -18 -12 -33 -19 -33 -7 0 -20
-8 -29 -18 -16 -17 -15 -20 13 -40 27 -20 30 -28 30 -76 0 -39 -9 -76 -33
-133 -19 -43 -60 -148 -91 -233 -47 -125 -64 -161 -92 -186 l-34 -31 0 -286
c0 -269 -1 -286 -18 -291 -18 -6 -19 -28 -25 -323 -4 -174 -7 -437 -7 -584 0
-147 -3 -275 -6 -284 -4 -8 -22 -22 -40 -30 -19 -8 -34 -20 -34 -28 0 -11 89
-15 543 -20 304 -3 586 -2 642 3 55 5 186 9 292 10 105 0 194 4 197 9 8 13 -4
41 -17 41 -6 0 -24 12 -39 27 l-28 27 0 356 c0 338 -1 358 -19 374 -17 15 -20
35 -23 155 -3 129 -5 140 -29 177 -37 53 -123 144 -137 144 -25 0 -89 -71
-126 -140 l-38 -72 -2 -126 -1 -127 -95 -3 c-52 -2 -118 0 -147 3 l-52 6 -3
42 -4 42 -17 -36 c-16 -35 -18 -37 -79 -42 -35 -3 -73 -8 -84 -12 -22 -7 -22
-6 -26 187 -3 146 -7 199 -18 218 -12 20 -16 86 -20 320 l-5 295 -34 65 c-18
36 -48 90 -67 120 -58 95 -125 257 -136 327 -10 65 -10 66 21 110 28 39 29 44
14 49 -39 12 -48 23 -53 60 -3 21 -8 35 -11 29z m66 -505 c15 -30 43 -78 61
-107 33 -52 84 -147 84 -158 0 -3 -83 -5 -185 -5 -102 0 -185 2 -185 4 0 9
123 336 143 380 l22 48 16 -53 c9 -30 28 -79 44 -109z m-37 -320 l192 0 0
-270 0 -270 -50 0 -50 0 0 163 0 162 -40 56 c-68 96 -124 99 -170 9 -18 -35
-20 -59 -20 -215 l0 -175 -55 0 -55 0 0 268 c0 148 3 272 7 276 4 4 17 5 28 2
11 -3 107 -6 213 -6z m-4 -171 l35 -30 3 -170 3 -169 -62 0 -63 0 0 178 c0
144 3 182 16 200 20 29 27 28 68 -9z m1042 -475 c33 -59 34 -64 34 -175 0
-130 -11 -159 -59 -159 -36 0 -41 16 -41 133 l0 88 -27 -3 c-24 -3 -29 -9 -36
-48 -4 -25 -5 -73 -2 -107 6 -61 6 -63 -17 -63 -49 0 -53 10 -53 147 l0 128
39 53 c29 40 43 51 57 47 15 -5 20 0 25 25 6 30 7 30 26 13 11 -10 35 -45 54
-79z m-812 10 c8 -60 8 -507 0 -528 -5 -13 -22 -16 -80 -16 l-74 0 0 161 c0
126 -3 168 -16 194 -22 46 -46 66 -91 72 -31 4 -42 1 -60 -19 -34 -37 -43 -92
-43 -255 l0 -153 -75 0 -75 0 0 295 0 295 254 0 253 0 7 -46z m-219 -210 c11
-27 15 -75 15 -185 l0 -149 -55 0 -55 0 0 166 c0 95 4 174 10 185 7 12 21 19
40 19 25 0 32 -6 45 -36z m760 -488 c4 -190 5 -360 1 -379 -5 -29 -12 -36 -37
-41 -18 -3 -37 -6 -44 -6 -11 0 -14 50 -17 228 -3 221 -4 228 -28 272 -29 51
-59 70 -114 70 -32 0 -45 -7 -75 -38 -55 -58 -63 -97 -61 -316 1 -105 1 -197
1 -203 -2 -20 -97 -17 -105 3 -3 9 -6 182 -6 385 l0 369 239 0 239 0 7 -344z
m343 -53 l-3 -358 -120 -7 c-66 -4 -131 -5 -145 -2 l-25 4 0 360 0 360 148 0
147 0 -2 -357z m-878 -108 l0 -265 -84 0 -85 0 -3 165 c-3 163 -3 165 -29 191
-35 34 -107 44 -144 20 l-26 -17 3 -180 3 -180 -80 3 c-76 3 -80 4 -79 26 0
12 1 130 2 262 l2 240 260 0 260 0 0 -265z m320 245 c10 -5 29 -27 42 -47 22
-36 23 -48 26 -250 l4 -213 -86 0 -86 0 0 208 c0 181 3 212 19 248 11 23 27
47 38 53 23 13 21 13 43 1z m-582 -190 c17 -11 32 -23 33 -27 0 -5 1 -72 2
-151 l2 -143 -45 3 -45 3 -3 155 c-3 196 -3 196 56 160z"/>
<path d="M6793 3903 c-10 -3 -13 -38 -13 -123 0 -126 4 -150 26 -150 25 0 34
38 34 147 0 121 -8 142 -47 126z"/>
<path d="M4540 6048 c-36 -33 -131 -109 -212 -170 -148 -110 -252 -215 -246
-247 3 -14 47 -16 438 -16 433 0 435 0 438 21 6 39 -283 435 -338 464 -11 5
-34 -10 -80 -52z m177 -141 c44 -62 90 -130 103 -152 13 -22 32 -50 43 -62 16
-17 17 -23 6 -24 -121 -6 -687 -6 -697 0 -16 10 81 102 171 162 34 23 80 59
102 79 22 21 67 60 100 88 72 60 62 65 172 -91z"/>
<path d="M8119 5576 c-39 -14 -58 -27 -133 -93 -44 -38 -47 -44 -41 -76 10
-50 -7 -53 -63 -13 -93 68 -179 71 -310 11 -104 -48 -182 -129 -167 -175 6
-20 12 -16 67 39 66 66 114 94 194 112 78 18 132 5 220 -52 45 -30 85 -49 98
-47 19 3 21 10 24 83 l3 80 42 30 c126 90 175 88 278 -11 62 -58 81 -64 117
-35 29 25 28 31 -4 31 -17 0 -43 15 -71 41 -84 77 -174 104 -254 75z"/>
<path d="M9814 5508 c-76 -73 -166 -196 -277 -375 -15 -23 -99 -132 -187 -243
-157 -196 -256 -342 -244 -361 6 -11 1070 -12 1827 -2 516 6 518 6 515 27 -2
11 -13 26 -26 32 -13 6 -37 24 -53 40 -31 30 -195 268 -264 384 -50 83 -147
213 -202 268 -53 52 -130 102 -158 102 -15 0 -50 -32 -109 -99 -82 -93 -208
-255 -220 -283 -3 -10 -8 -9 -15 4 -6 9 -50 65 -97 123 -47 59 -107 140 -133
179 -74 109 -237 286 -264 286 -5 0 -47 -37 -93 -82z m167 -53 c35 -38 105
-123 154 -188 50 -65 98 -129 109 -142 15 -19 16 -26 6 -45 -30 -56 -426 -472
-472 -496 -21 -11 -85 -14 -302 -14 -176 0 -277 4 -281 10 -10 16 26 68 181
265 78 99 191 255 252 346 100 148 264 345 281 337 4 -2 36 -34 72 -73z m851
-188 c77 -65 188 -211 293 -383 95 -157 180 -280 203 -294 12 -6 -71 -9 -256
-10 l-274 0 -73 68 c-40 37 -117 116 -170 175 l-98 109 12 39 c21 69 247 349
282 349 10 0 47 -24 81 -53z m-474 -289 c97 -127 272 -324 317 -358 26 -19 41
-36 33 -37 -51 -7 -848 -8 -848 -1 0 11 432 458 443 458 4 0 28 -28 55 -62z"/>
<path d="M1001 5124 c-30 -8 -76 -26 -102 -41 -50 -27 -105 -86 -95 -102 3 -4
36 -10 74 -13 50 -4 83 -13 120 -33 57 -31 162 -120 162 -138 0 -17 -48 -53
-185 -139 -156 -97 -225 -138 -305 -179 -36 -19 -66 -42 -68 -51 -3 -16 6 -18
75 -18 151 1 370 28 490 61 l115 32 76 -83 c101 -110 106 -117 103 -162 -2
-47 12 -49 101 -13 88 36 123 67 157 138 39 83 52 158 41 238 -8 57 -14 68
-50 102 l-40 38 56 60 c34 35 79 69 111 85 44 20 54 29 51 47 -4 26 -57 63
-112 78 -49 14 -234 6 -289 -12 -36 -12 -42 -11 -150 44 -158 79 -224 91 -336
61z m243 -72 c34 -16 87 -50 119 -76 l58 -47 32 20 c38 23 128 41 207 41 54 0
150 -25 150 -38 0 -4 -13 -13 -28 -20 -44 -19 -282 -234 -282 -254 0 -6 10 -8
28 -3 104 27 151 13 179 -53 20 -48 12 -134 -17 -193 -29 -59 -98 -129 -126
-129 -26 0 -31 5 -99 90 -110 138 -116 143 -182 148 -46 3 -83 -2 -150 -22
-94 -28 -219 -46 -313 -46 l-55 0 25 21 c14 11 73 47 132 80 178 101 261 160
283 201 l20 37 -60 62 c-71 73 -161 134 -210 143 -43 8 -44 16 -6 39 76 45
198 45 295 -1z"/>
<path d="M3607 5056 c-31 -13 -73 -36 -92 -50 -52 -40 -137 -179 -184 -301
-48 -124 -153 -302 -185 -314 -11 -5 -79 -11 -151 -14 -332 -14 -428 -77 -570
-371 -62 -126 -98 -170 -254 -307 l-75 -65 24 -24 c22 -22 27 -23 129 -16 58
3 135 13 171 20 80 17 234 83 294 126 49 35 95 97 99 131 3 35 -16 32 -40 -6
-61 -93 -303 -199 -493 -215 -47 -4 -86 -6 -88 -5 -2 2 27 31 64 66 89 85 167
191 234 319 116 223 219 275 595 301 190 13 333 36 357 57 67 58 133 237 154
416 19 169 22 176 68 219 34 31 38 39 26 47 -20 13 -16 13 -83 -14z m-41 -113
c-3 -21 -11 -80 -16 -132 -12 -103 -58 -272 -93 -335 -18 -34 -31 -44 -73 -58
-27 -9 -79 -20 -114 -24 l-64 -7 27 32 c47 57 98 153 139 261 21 58 55 132 75
165 37 61 100 135 116 135 5 0 6 -17 3 -37z"/>
<path d="M11911 4976 c-23 -27 -10 -59 29 -69 19 -5 47 -20 62 -34 72 -69 178
-23 178 77 0 39 -9 37 -41 -9 -36 -51 -69 -59 -117 -26 -20 14 -42 25 -48 25
-7 0 -21 12 -31 26 -17 23 -21 24 -32 10z"/>
<path d="M4378 4822 c-9 -32 28 -153 83 -278 54 -124 73 -154 96 -154 19 0 18
89 -1 96 -15 6 -74 148 -107 257 -24 81 -61 120 -71 79z"/>
<path d="M11983 4754 c-40 -36 -73 -72 -73 -80 0 -30 44 -12 101 43 44 41 64
54 73 48 47 -35 99 -66 103 -61 23 23 -67 116 -111 116 -12 0 -54 -30 -93 -66z"/>
<path d="M8190 4781 c-95 -29 -190 -113 -190 -168 0 -23 -1 -23 -118 -23 -119
0 -164 -12 -148 -38 10 -16 230 -15 276 1 29 10 36 18 41 50 8 47 40 83 104
113 85 40 152 30 218 -34 97 -93 91 -162 -25 -294 -58 -67 -93 -136 -107 -212
-17 -90 -14 -295 5 -378 14 -62 23 -79 67 -125 43 -45 62 -57 131 -80 69 -23
99 -27 201 -27 120 -1 120 -1 218 42 129 56 214 76 299 69 73 -6 105 -20 188
-79 104 -74 405 -148 405 -99 0 10 -35 23 -111 41 -120 30 -273 91 -350 140
-113 71 -222 65 -435 -25 -97 -41 -114 -45 -187 -45 -84 0 -162 19 -264 64
-107 47 -138 118 -138 310 0 139 19 240 54 301 14 23 53 72 86 109 34 37 65
79 71 92 58 155 -128 344 -291 295z"/>
<path d="M4658 4732 c-9 -2 -20 -13 -24 -25 -3 -12 -24 -59 -46 -105 -38 -81
-41 -102 -13 -102 19 0 81 105 95 162 14 55 11 75 -12 70z"/>
<path d="M4197 4579 c-10 -36 23 -55 127 -74 54 -9 99 -15 102 -12 9 9 -8 35
-31 45 -13 6 -40 14 -62 18 -21 4 -57 15 -81 26 -53 22 -49 22 -55 -3z"/>
<path d="M4830 4560 c-19 -4 -57 -17 -85 -30 l-50 -23 34 -10 c27 -9 44 -7 85
7 53 19 76 33 76 46 0 13 -23 17 -60 10z"/>
<path d="M4364 4366 c-95 -30 -214 -111 -214 -147 0 -15 26 -10 53 11 31 25
166 90 187 90 8 1 26 7 38 14 22 12 23 14 7 29 -19 20 -18 20 -71 3z"/>
<path d="M14432 4365 c-63 -15 -154 -75 -182 -120 -24 -38 -90 -85 -122 -85
-12 0 -41 -9 -64 -21 -55 -26 -96 -102 -98 -183 -2 -96 -19 -92 377 -99 405
-8 493 -1 546 41 28 23 37 38 39 67 5 61 -5 81 -59 116 -36 23 -57 45 -69 73
-25 58 -59 99 -117 146 -82 65 -164 86 -251 65z m189 -81 c56 -31 115 -97 125
-142 14 -64 28 -84 72 -105 51 -25 73 -50 56 -67 -6 -6 -44 -22 -84 -36 -72
-25 -74 -25 -401 -25 -183 1 -340 6 -354 11 -21 8 -25 16 -25 50 0 42 27 107
54 130 9 7 48 15 87 18 l70 5 33 51 c38 59 100 112 154 133 57 21 149 11 213
-23z"/>
<path d="M4632 4348 c7 -21 49 -36 151 -54 73 -13 100 -15 109 -6 8 8 8 15 -1
26 -28 33 -269 64 -259 34z"/>
<path d="M4516 4244 c-4 -15 -4 -51 0 -81 6 -47 9 -54 27 -51 42 6 47 126 7
148 -26 14 -27 13 -34 -16z"/>
<path d="M11795 4096 c-109 -35 -161 -77 -317 -258 -110 -127 -187 -154 -293
-104 -50 24 -87 58 -139 129 -34 46 -67 49 -122 8 -74 -53 -95 -95 -72 -140
22 -41 40 -39 33 3 -8 42 -1 54 64 98 l44 31 26 -31 c14 -17 43 -51 63 -75 49
-58 125 -97 192 -97 81 0 135 38 277 195 152 169 186 190 302 187 90 -2 98 -6
186 -78 91 -75 152 -97 271 -98 102 -1 151 15 195 64 28 31 62 47 116 55 39 6
46 10 42 26 -10 36 -70 25 -156 -30 -93 -59 -146 -75 -229 -69 -79 5 -152 38
-238 108 -107 87 -159 103 -245 76z"/>
<path d="M948 3708 c-9 -18 -30 -63 -47 -101 -17 -37 -49 -97 -72 -134 -22
-37 -54 -99 -70 -137 -16 -38 -103 -211 -193 -385 -90 -174 -169 -332 -176
-352 -27 -75 -91 -69 784 -69 488 0 787 4 791 10 10 16 -20 71 -92 168 -38 51
-101 157 -141 236 -61 121 -77 145 -99 151 -23 5 -32 0 -60 -32 -18 -21 -51
-68 -74 -105 -22 -38 -42 -68 -44 -68 -10 0 -95 125 -105 156 -7 21 -42 89
-78 153 -113 201 -260 466 -281 508 -9 18 -19 32 -22 33 -3 0 -13 -15 -21 -32z
m106 -237 c31 -74 74 -152 117 -214 68 -97 100 -151 113 -194 l7 -23 -300 0
c-280 0 -301 1 -301 18 0 24 169 375 217 449 22 33 46 76 53 94 l14 32 15 -23
c9 -13 38 -76 65 -139z m601 -488 c17 -22 52 -81 78 -129 26 -49 58 -104 70
-122 74 -110 88 -134 85 -138 -3 -2 -332 -7 -731 -10 -714 -7 -727 -7 -720 12
24 65 196 366 220 386 21 17 640 12 661 -5 21 -17 102 -159 102 -179 0 -31 23
-32 47 -2 12 16 23 33 23 38 0 5 13 30 28 55 16 25 41 68 56 94 15 27 33 46
39 44 7 -2 26 -22 42 -44z"/>
<path d="M3737 3528 c-165 -206 -222 -260 -242 -228 -15 24 -64 9 -117 -34
-87 -73 -140 -133 -258 -291 -61 -82 -130 -175 -153 -205 -73 -95 -148 -214
-143 -227 3 -6 22 -15 43 -19 43 -8 1992 2 2000 10 10 10 -23 50 -199 236
-287 304 -553 608 -717 818 -30 38 -76 72 -98 72 -5 0 -57 -60 -116 -132z
m214 -20 c115 -149 290 -362 358 -433 37 -38 87 -92 111 -120 24 -27 111 -120
193 -205 l150 -155 -74 -8 c-41 -4 -463 -10 -938 -13 -720 -5 -862 -4 -855 8
85 143 310 444 409 550 59 62 139 128 155 128 20 0 118 -93 172 -165 228 -296
309 -385 350 -385 37 0 35 9 -8 51 -19 18 -54 58 -77 88 l-41 53 74 67 c134
118 175 159 167 167 -13 13 -70 -23 -172 -110 l-100 -86 -25 28 c-22 26 -190
235 -215 269 -12 15 -17 7 100 154 124 156 165 199 185 199 10 0 44 -35 81
-82z"/>
<path d="M7790 3574 c0 -36 -17 -64 -40 -64 -13 0 -18 -5 -14 -15 4 -8 12 -15
19 -15 19 0 25 -24 25 -100 0 -59 -3 -69 -20 -75 -30 -10 -107 -101 -114 -136
-3 -17 -6 -60 -6 -94 0 -105 -7 -123 -50 -135 -20 -5 -44 -18 -52 -27 -15 -19
-145 -279 -172 -346 -8 -21 -35 -64 -59 -95 -32 -42 -53 -86 -80 -172 -50
-154 -84 -220 -125 -245 -52 -31 -98 -73 -90 -81 5 -4 45 3 90 16 80 22 100
23 645 31 463 6 580 5 665 -7 180 -24 619 -74 721 -80 l97 -7 0 26 c0 24 -4
27 -35 27 -21 0 -41 7 -52 19 -10 11 -30 24 -45 30 -18 7 -34 26 -48 58 -35
77 -61 156 -56 170 3 8 23 13 48 13 53 0 161 23 212 44 l38 16 -50 92 c-27 51
-72 134 -100 185 -48 87 -50 93 -40 133 15 59 0 90 -46 90 -18 0 -39 -7 -46
-15 -19 -23 -4 -45 30 -45 36 0 41 -26 8 -39 -31 -12 -62 -56 -118 -170 -27
-53 -60 -111 -74 -130 -42 -57 -36 -93 28 -154 61 -60 71 -75 80 -136 8 -49
29 -95 60 -130 l21 -23 -30 6 c-52 10 -195 26 -323 36 -161 12 -182 22 -250
125 -30 44 -79 109 -110 143 -70 78 -92 120 -131 242 -29 91 -54 137 -121 224
-27 35 -30 45 -25 81 6 35 3 44 -20 67 -15 15 -35 30 -45 33 -23 7 -40 55 -40
109 0 54 -32 177 -54 210 -9 15 -29 29 -44 32 -27 6 -28 7 -31 84 -2 75 -1 78
26 98 l28 21 -27 10 c-24 9 -28 16 -28 51 0 29 -4 40 -15 40 -9 0 -15 -10 -15
-26z m34 -344 c31 -11 56 -58 56 -105 0 -19 5 -35 10 -35 6 0 10 -32 10 -75
l0 -75 -106 0 -107 0 7 46 c3 26 6 80 6 121 0 69 2 77 29 104 31 31 53 35 95
19z m170 -378 c-5 -33 0 -46 41 -107 64 -95 90 -149 142 -290 40 -108 50 -125
97 -170 29 -28 72 -84 96 -125 24 -41 48 -78 54 -82 21 -14 -2 -18 -53 -8 -34
6 -256 7 -619 3 -422 -5 -563 -3 -558 5 4 6 36 86 71 178 47 120 74 177 99
204 36 40 76 109 76 132 0 6 18 41 39 77 22 36 44 85 50 107 13 48 44 92 75
104 11 5 105 9 209 9 l187 1 -6 -38z m1079 -220 c9 -9 30 -49 47 -87 18 -39
45 -98 61 -131 16 -34 29 -64 29 -66 0 -6 -113 -24 -205 -34 -52 -5 -64 -3
-87 16 -16 12 -28 28 -28 36 0 8 16 38 35 68 20 29 45 81 55 116 28 92 59 120
93 82z"/>
<path d="M7702 2604 c-35 -28 -92 -118 -92 -146 0 -35 36 -17 91 44 53 59 58
62 85 53 39 -14 42 -47 10 -96 -31 -46 -33 -66 -6 -74 15 -5 32 6 71 45 57 57
56 45 8 142 -17 34 -29 47 -44 47 -11 -1 -36 2 -55 6 -29 5 -41 1 -68 -21z"/>
<path d="M13122 3587 c-5 -6 -13 -22 -16 -34 -4 -13 -15 -23 -25 -23 -10 0
-26 -9 -37 -21 -18 -20 -18 -21 1 -35 15 -11 21 -11 27 -1 6 9 11 8 21 -4 8
-11 10 -45 7 -116 -5 -89 -8 -105 -34 -141 -15 -23 -43 -50 -61 -60 -30 -18
-33 -25 -39 -87 -8 -78 -17 -99 -57 -133 -20 -16 -29 -33 -29 -53 0 -22 -7
-32 -25 -41 -28 -13 -32 -35 -10 -52 13 -9 16 -55 16 -313 0 -202 -3 -308 -11
-322 -8 -16 -21 -21 -49 -21 -48 0 -64 -26 -25 -40 28 -11 582 -14 712 -3 71
5 82 8 82 24 0 20 -6 22 -55 20 -16 -1 -36 3 -44 8 -22 14 -40 214 -41 437 0
194 1 202 21 216 21 14 21 14 2 53 -14 31 -23 39 -40 37 -31 -4 -60 13 -66 40
-3 13 -14 49 -26 80 -12 32 -21 76 -21 98 0 34 -8 50 -39 88 -64 75 -101 156
-101 216 0 49 2 52 38 71 23 12 38 29 40 43 4 27 -24 31 -43 5 -20 -26 -45 -9
-45 31 0 38 -12 53 -28 33z m98 -456 c11 -22 20 -48 20 -56 0 -9 15 -51 33
-93 19 -43 37 -92 40 -109 l7 -33 -69 0 c-37 0 -116 -3 -176 -7 l-107 -6 7 44
c14 83 73 211 132 286 l57 72 17 -29 c10 -16 27 -47 39 -69z m151 -353 c1 -2
5 -109 9 -238 4 -129 13 -270 20 -313 7 -42 10 -81 6 -85 -4 -4 -119 -8 -254
-10 l-247 -3 3 313 c2 172 5 319 7 326 3 9 58 12 230 12 124 0 226 -1 226 -2z"/>
<path d="M13080 2611 l-25 -7 -3 -163 -3 -162 23 3 c22 3 23 6 26 141 l3 137
39 0 c53 0 60 -16 60 -144 0 -94 2 -106 19 -116 11 -5 21 -7 23 -3 2 5 1 67
-2 138 -6 164 -17 186 -88 184 -26 -1 -58 -4 -72 -8z"/>
<path d="M14336 3179 c-15 -12 -43 -53 -62 -91 -35 -69 -86 -128 -111 -128
-17 0 -28 -49 -15 -62 6 -6 32 -14 58 -19 58 -11 80 -30 128 -114 21 -35 43
-66 50 -68 7 -3 19 15 30 44 21 59 65 95 167 135 38 15 74 33 80 40 13 16 3
34 -19 34 -35 0 -82 41 -129 112 -42 63 -119 138 -142 138 -5 0 -20 -9 -35
-21z m94 -96 c23 -27 51 -65 61 -85 11 -21 23 -38 27 -38 4 0 18 -9 30 -18
l24 -18 -66 -33 c-36 -18 -78 -48 -95 -68 l-29 -36 -29 41 c-15 22 -50 53 -76
69 l-48 28 24 20 c14 11 37 49 51 84 27 68 51 101 72 101 7 0 31 -21 54 -47z"/>
<path d="M10245 3113 c-9 -32 -34 -115 -56 -185 -46 -148 -48 -184 -13 -258
44 -94 54 -181 54 -450 -1 -193 -4 -255 -16 -293 -9 -26 -13 -54 -10 -62 9
-25 45 -17 58 13 16 40 22 415 9 587 -10 125 -16 157 -41 217 -17 39 -30 86
-30 107 0 20 16 81 35 136 19 55 35 108 35 118 0 34 19 16 39 -38 11 -30 25
-85 31 -122 6 -38 16 -84 21 -103 9 -31 7 -45 -15 -98 -14 -34 -26 -79 -26
-100 0 -22 -4 -63 -10 -92 -9 -47 3 -607 14 -617 9 -9 35 11 40 30 3 12 1 112
-4 224 -5 112 -7 210 -4 218 4 8 17 15 29 15 35 0 71 16 122 55 25 19 50 35
56 35 14 0 4 -109 -14 -145 -17 -35 -67 -71 -123 -87 -23 -6 -45 -15 -50 -19
-19 -16 27 -22 80 -10 98 22 164 106 164 209 0 53 -25 132 -42 132 -5 0 -35
-21 -65 -46 -54 -44 -122 -84 -141 -84 -18 0 -20 55 -5 149 8 53 22 110 30
128 23 48 2 198 -51 359 -36 107 -46 130 -64 132 -18 3 -23 -5 -37 -55z"/>
<path d="M11540 3055 c-25 -14 -72 -54 -105 -89 -45 -47 -72 -67 -102 -75 -45
-12 -95 -65 -107 -113 -11 -49 7 -52 367 -56 320 -4 459 1 486 18 18 11 7 68
-22 110 -40 60 -70 75 -159 79 l-80 3 -25 42 c-33 55 -101 98 -162 103 -36 3
-56 -2 -91 -22z m150 -50 c36 -18 57 -45 72 -90 l13 -40 101 -5 c108 -5 124
-12 150 -63 l16 -29 -365 3 c-201 2 -369 7 -373 11 -3 4 1 19 10 33 12 19 25
25 51 25 37 0 43 5 94 76 20 28 50 52 92 73 64 32 85 33 139 6z"/>
<path d="M5775 2746 c-38 -24 -84 -59 -102 -77 -27 -28 -39 -33 -84 -34 -45
-1 -56 -5 -80 -33 -16 -18 -35 -32 -44 -32 -8 0 -21 -13 -30 -30 -31 -61 -10
-136 48 -167 29 -16 63 -18 327 -17 320 0 524 15 580 42 31 15 35 21 32 52 -6
65 -32 126 -70 162 -86 81 -116 90 -207 63 -62 -19 -88 -14 -115 25 -28 39
-116 90 -155 90 -18 0 -58 -17 -100 -44z m166 -35 c24 -16 57 -43 73 -60 30
-31 59 -40 71 -20 4 6 19 7 35 4 16 -3 45 -2 64 4 32 8 41 6 89 -26 61 -40 81
-69 91 -130 l6 -41 -48 -6 c-107 -13 -389 -27 -572 -29 -179 -2 -198 0 -229
18 -19 11 -39 28 -45 37 -23 37 50 111 123 124 38 7 92 36 169 93 57 42 92 61
113 61 8 0 35 -13 60 -29z"/>
<path d="M9972 2542 c-23 -34 -32 -59 -32 -88 0 -88 93 -212 204 -272 33 -18
61 -30 64 -28 9 9 -33 58 -78 91 -58 43 -128 131 -136 173 -4 17 -3 43 0 57
l7 26 32 -24 c17 -14 50 -30 72 -37 22 -7 55 -29 73 -49 l32 -35 0 40 c0 37
-4 41 -58 75 -31 20 -72 44 -89 53 -18 9 -38 27 -45 41 l-13 24 -33 -47z"/>
<path d="M11762 1871 c2 -88 6 -163 11 -167 4 -4 13 -2 20 5 8 8 13 61 15 166
l4 155 -27 0 -26 0 3 -159z"/>
<path d="M2115 1949 c-9 -28 8 -43 70 -64 28 -9 66 -32 86 -52 l37 -35 11 35
c16 47 37 63 94 71 37 6 47 11 47 26 0 41 -94 38 -144 -5 -29 -25 -29 -25 -56
-5 -26 19 -104 50 -127 50 -6 0 -15 -10 -18 -21z"/>
<path d="M14214 1908 c-24 -22 -101 -109 -170 -192 -243 -295 -424 -474 -581
-577 -63 -41 -106 -60 -248 -112 -60 -22 -115 -87 -165 -193 -26 -55 -63 -125
-83 -154 -26 -38 -34 -57 -26 -65 17 -16 80 63 140 177 68 130 121 186 209
217 102 37 219 99 297 157 66 49 112 93 255 246 l48 51 55 -5 c48 -4 68 -13
133 -58 l76 -53 36 20 c24 15 58 22 106 24 68 3 73 2 108 -29 37 -32 38 -33
114 -26 42 3 95 10 116 14 55 12 86 -7 136 -79 47 -70 52 -74 74 -58 15 11 9
23 -57 112 -41 55 -111 143 -156 195 -46 52 -126 156 -179 230 -111 157 -149
200 -174 200 -10 0 -39 -19 -64 -42z m123 -85 c27 -38 75 -104 106 -149 31
-44 90 -121 131 -170 41 -49 72 -92 68 -96 -5 -5 -51 -11 -103 -15 -94 -6 -96
-6 -116 21 -20 25 -26 26 -108 26 -72 0 -91 -3 -112 -20 -14 -11 -31 -20 -38
-20 -6 0 -48 24 -92 53 -44 28 -88 57 -97 62 -16 9 -12 17 32 77 75 100 252
298 267 298 7 0 35 -30 62 -67z"/>
<path d="M11310 1804 c0 -19 22 -51 77 -113 82 -92 103 -107 103 -69 0 14 -28
55 -75 107 -89 102 -105 113 -105 75z"/>
<path d="M12255 1794 c-63 -32 -182 -171 -171 -199 9 -25 33 -17 57 18 13 17
52 67 87 110 35 43 63 80 60 82 -2 2 -17 -3 -33 -11z"/>
<path d="M3663 1771 c-59 -28 -143 -101 -174 -150 -12 -20 -24 -24 -69 -25
-129 -3 -267 -142 -258 -259 l3 -42 565 4 c311 2 569 7 575 12 20 19 9 75 -25
122 -43 60 -81 83 -150 90 -47 5 -60 11 -85 41 -16 18 -42 59 -58 89 -34 67
-35 69 -128 108 -104 44 -123 45 -196 10z m183 -56 c65 -32 112 -78 139 -138
13 -26 37 -64 55 -83 29 -32 35 -35 73 -29 32 4 50 1 74 -14 33 -21 70 -78 58
-89 -4 -4 -183 -7 -398 -8 -216 -1 -447 -4 -514 -9 l-122 -8 6 39 c16 112 156
201 231 148 22 -15 25 -15 47 6 13 12 37 49 55 81 30 57 72 94 133 119 43 17
111 11 163 -15z"/>
<path d="M894 1712 c7 -12 -38 -53 -94 -87 -62 -38 -95 -70 -140 -135 -86
-126 -98 -182 -71 -308 36 -164 47 -184 199 -366 34 -41 62 -80 62 -88 0 -7
-8 -18 -19 -25 -10 -6 -21 -21 -24 -32 -7 -28 15 -27 60 0 42 26 43 26 74 -85
21 -75 32 -95 52 -96 20 0 -18 177 -44 204 -5 6 11 23 39 42 26 17 80 64 120
103 62 60 81 88 119 169 53 111 63 172 40 235 -8 23 -18 57 -21 76 -3 18 -24
75 -46 126 -41 93 -76 136 -150 185 -19 13 -52 39 -73 57 -21 19 -48 33 -63
33 -14 0 -23 -4 -20 -8z m102 -108 c146 -87 201 -188 174 -319 -13 -64 -9 -76
20 -50 11 10 22 16 24 14 13 -15 24 -75 20 -102 -8 -43 -73 -174 -104 -212
-14 -16 -34 -42 -43 -58 -20 -32 -93 -87 -115 -87 -12 0 -13 34 -7 254 4 150
3 256 -2 259 -5 3 -15 2 -23 -3 -11 -7 -16 -50 -22 -182 -5 -95 -11 -215 -16
-267 l-7 -95 -26 40 c-15 21 -53 69 -86 106 -33 37 -75 95 -92 128 -35 64 -75
231 -65 264 4 10 21 39 40 63 23 30 34 55 34 77 0 45 62 115 148 166 37 21 72
39 78 40 5 0 37 -16 70 -36z"/>
<path d="M6443 1703 c-16 -6 -16 -31 -1 -104 l12 -58 -47 -70 c-65 -98 -379
-467 -399 -470 -4 -1 -22 20 -40 45 -38 53 -184 184 -206 184 -7 0 -34 -22
-59 -50 -25 -27 -48 -50 -53 -50 -11 0 -79 109 -135 217 -27 51 -70 119 -97
153 l-49 60 -28 -20 c-50 -35 -138 -137 -187 -217 -27 -43 -65 -98 -85 -123
-21 -25 -52 -66 -71 -92 -50 -71 -176 -216 -203 -234 -14 -9 -34 -31 -45 -49
-11 -18 -61 -84 -111 -146 -60 -75 -89 -120 -87 -133 l3 -21 1351 -3 c1305 -2
1352 -1 1375 17 l23 18 -42 49 c-89 106 -211 250 -286 337 -330 386 -467 580
-488 695 -11 60 -21 73 -45 65z m-1055 -235 c12 -24 62 -119 112 -213 49 -93
90 -179 90 -191 0 -21 -42 -64 -62 -64 -6 0 -24 -12 -41 -26 l-32 -27 63 5
c62 4 65 6 105 54 73 87 140 154 151 154 7 0 63 -55 126 -122 63 -67 138 -144
166 -172 29 -28 80 -85 114 -126 35 -41 84 -96 109 -122 l45 -48 -858 0 -858
0 17 28 c24 36 68 93 134 172 119 142 146 171 185 196 36 24 43 26 70 15 17
-7 70 -26 118 -42 l87 -29 47 45 c53 50 73 54 113 26 17 -13 36 -18 50 -14
l22 6 -23 24 c-24 26 -57 45 -95 57 -16 5 -33 -3 -73 -39 -28 -25 -54 -45 -58
-45 -4 0 -49 16 -99 36 l-93 35 15 36 c17 41 21 46 91 128 28 33 61 79 73 102
11 23 34 51 51 63 17 12 40 40 51 63 22 44 47 77 59 77 3 0 16 -19 28 -42z
m1144 -51 c26 -40 103 -144 173 -232 l126 -160 -75 -7 c-186 -17 -336 -54
-321 -78 8 -13 90 -13 133 -1 18 6 95 15 170 21 l137 11 69 -76 c38 -42 113
-131 167 -198 l98 -122 -385 -3 c-364 -2 -386 -1 -423 17 -21 11 -45 31 -54
44 -9 13 -77 91 -151 171 -75 81 -136 154 -136 163 0 8 52 69 115 137 117 124
244 282 280 349 11 20 22 37 25 36 3 0 26 -33 52 -72z"/>
<path d="M11720 1639 c-111 -22 -199 -92 -248 -198 -23 -48 -27 -70 -27 -151
0 -84 3 -102 29 -158 39 -84 117 -156 193 -178 77 -22 193 -15 256 15 61 30
143 104 167 152 11 21 25 69 32 107 10 59 9 79 -5 138 -10 38 -29 85 -42 106
-32 48 -165 154 -202 162 -65 12 -111 14 -153 5z m158 -74 c144 -67 183 -119
190 -256 5 -104 -5 -141 -60 -210 -58 -73 -127 -104 -233 -103 -61 0 -89 5
-120 21 -162 86 -214 312 -105 460 76 103 215 141 328 88z"/>
<path d="M1620 1437 c0 -24 61 -192 76 -208 17 -19 142 -71 210 -89 24 -6 121
-9 230 -8 177 3 193 2 246 -20 78 -32 142 -92 228 -217 41 -59 101 -131 134
-161 110 -100 252 -150 402 -142 51 3 59 6 59 23 0 18 -9 21 -96 26 -204 14
-284 61 -431 254 -115 151 -136 174 -200 222 -86 62 -142 76 -308 72 -80 -1
-170 -2 -200 -1 -61 2 -173 33 -207 57 -12 8 -42 58 -67 110 -28 60 -50 95
-60 95 -9 0 -16 -6 -16 -13z"/>
<path d="M9574 1359 c-10 -12 -43 -40 -73 -62 -30 -22 -89 -72 -130 -112 -42
-39 -97 -87 -123 -108 -41 -33 -49 -36 -74 -26 -37 13 -60 1 -99 -54 -29 -41
-223 -251 -364 -396 -40 -40 -69 -76 -66 -80 14 -13 340 -19 1070 -20 463 0
766 3 775 9 18 11 29 1 -136 138 -66 55 -170 153 -229 219 -206 224 -438 462
-475 488 -44 30 -52 31 -76 4z m139 -131 c44 -46 109 -117 144 -158 l64 -74
-48 -11 c-26 -7 -72 -24 -101 -38 -52 -27 -52 -27 -115 -12 -34 9 -74 21 -89
26 -22 9 -34 6 -72 -16 -25 -14 -60 -42 -79 -62 l-34 -35 -76 69 -76 68 112
108 c62 60 135 125 162 146 28 21 56 45 64 54 29 35 61 21 144 -65z m-483
-305 c36 -28 82 -72 104 -98 41 -50 90 -85 119 -85 24 0 21 13 -9 50 -30 35
-31 32 44 88 l53 39 72 -28 c40 -16 78 -28 86 -29 8 0 41 13 75 29 34 15 72
32 86 36 14 4 41 16 61 26 l35 18 164 -165 c90 -90 188 -183 217 -207 l53 -42
-816 -3 c-450 -1 -820 0 -822 3 -3 3 8 20 25 38 16 17 39 45 51 61 17 23 152
168 290 313 25 27 22 28 112 -44z"/>
<path d="M11087 1313 c-15 -2 -25 -9 -22 -14 4 -5 1 -9 -6 -9 -10 0 -10 -3 -1
-12 9 -9 58 -13 172 -13 163 0 189 6 177 39 -5 14 -28 16 -149 15 -79 -1 -155
-4 -171 -6z"/>
<path d="M12191 1306 c-24 -29 23 -38 166 -34 132 4 152 9 153 41 0 4 -69 7
-154 7 -121 0 -156 -3 -165 -14z"/>
<path d="M8001 1229 c-13 -5 -41 -23 -63 -41 -39 -31 -41 -31 -88 -19 -42 11
-52 10 -82 -5 l-33 -18 53 -12 c29 -7 66 -17 82 -24 26 -11 33 -8 90 34 43 32
72 46 94 46 38 0 123 -39 188 -85 50 -36 72 -43 84 -24 13 21 -59 78 -151 119
-93 40 -130 47 -174 29z"/>
<path d="M14120 979 c-25 -17 -110 -63 -189 -102 -89 -44 -163 -89 -194 -116
-71 -65 -149 -170 -145 -198 5 -40 21 -31 66 37 79 121 131 164 297 245 159
77 220 119 214 147 -3 15 -10 13 -49 -13z"/>
<path d="M11408 919 c-89 -95 -102 -114 -91 -134 8 -13 26 -1 107 72 71 63 96
93 94 107 -6 44 -39 30 -110 -45z"/>
<path d="M12095 979 c-15 -24 9 -59 76 -112 40 -31 81 -57 91 -57 19 0 19 1 0
28 -21 29 -147 152 -156 152 -2 0 -8 -5 -11 -11z"/>
<path d="M11776 843 c-3 -3 -6 -55 -6 -113 0 -81 4 -110 14 -119 25 -21 36 19
36 123 0 83 -2 97 -19 105 -10 6 -21 7 -25 4z"/>
<path d="M1903 820 c-13 -5 -23 -16 -23 -24 0 -15 17 -20 105 -29 22 -3 67
-15 100 -27 51 -19 75 -39 165 -130 110 -112 161 -146 233 -156 43 -6 87 7 87
25 0 5 -27 14 -59 19 -90 16 -131 43 -228 147 -74 82 -100 102 -168 136 -85
42 -169 58 -212 39z"/>
</g>
</svg>
